<?xml version="1.0" encoding="UTF-8"?> <svg xmlns="http://www.w3.org/2000/svg" xmlns:xlink="http://www.w3.org/1999/xlink" version="1.1" id="Layer_2" x="0px" y="0px" width="501.084px" height="134px" viewBox="0 0 501.084 134" xml:space="preserve"> <g> <path fill="none" d="M219.533,82.095h0.201c0.003-0.029,0.008-0.056,0.011-0.085C219.679,82.039,219.603,82.067,219.533,82.095z"></path> <polygon fill="none" points="160.241,82.095 163.016,75.915 157.698,75.915 158.339,82.095 "></polygon> <polygon fill="none" points="159.56,83.613 158.496,83.613 158.695,85.537 "></polygon> <path fill="none" d="M216.526,65.815c-1.607,0.001-3.058,0.301-4.358,0.884h8.496c-0.132-0.074-0.247-0.16-0.399-0.22 C219.137,66.035,217.891,65.813,216.526,65.815z"></path> <path fill="none" d="M294.31,65.388c0.995-1.874,2.08-3.495,3.253-4.869h-2.608l-0.822,4.869L294.31,65.388z"></path> <path fill="none" d="M104.406,91.311h-4.465c0.65,0.217,1.366,0.33,2.156,0.33C102.909,91.64,103.676,91.522,104.406,91.311z"></path> <polygon fill="#3A5F8E" points="67.269,43.605 76.537,43.605 77.396,38.708 57.282,38.727 53.741,59.11 51.975,73.708 35.21,38.747 15.542,38.765 4.296,102.855 24.411,102.836 27.953,82.541 29.718,67.943 46.483,102.816 66.152,102.798 66.817,99.009 57.619,99.009 57.882,97.491 67.083,97.491 68.168,91.311 58.96,91.311 59.223,89.793 68.434,89.793 69.519,83.613 60.301,83.613 60.563,82.095 69.784,82.095 70.869,75.915 61.642,75.915 61.904,74.397 71.135,74.397 72.22,68.217 62.982,68.217 63.246,66.699 72.485,66.699 73.57,60.519 64.323,60.519 64.587,59.001 73.836,59.001 74.921,52.821 65.664,52.821 65.928,51.303 75.187,51.303 76.271,45.123 67.005,45.123 "></polygon> <path fill="#3A5F8E" d="M83.415,99.178c4.155,3.289,9.645,4.931,16.469,4.924c3.796-0.003,7.4-0.527,10.813-1.567 c2.737-0.835,5.254-2.021,7.569-3.526H83.225C83.291,99.063,83.348,99.125,83.415,99.178z"></path> <path fill="#3A5F8E" d="M83.06,66.699h46.919c-0.905-2.357-2.295-4.417-4.166-6.18H89.364c-0.424,0.303-0.856,0.592-1.268,0.919 C86.161,62.975,84.494,64.738,83.06,66.699z"></path> <path fill="#3A5F8E" d="M120.382,97.491c2.173-1.714,4.063-3.779,5.684-6.18h-21.659c-0.73,0.211-1.497,0.329-2.309,0.33 c-0.79,0-1.506-0.113-2.156-0.33h-21.9c0.728,2.375,1.929,4.427,3.569,6.18H120.382z"></path> <path fill="#3A5F8E" d="M107.264,89.793h19.781c1.103-1.869,1.979-3.939,2.669-6.18H111.15c-0.694,2.024-1.56,3.665-2.603,4.906 C108.142,89.002,107.712,89.422,107.264,89.793z"></path> <path fill="#3A5F8E" d="M77.663,89.793h19.988c-0.045-0.052-0.095-0.097-0.139-0.151c-1.101-1.334-1.649-3.336-1.652-6.006 c0-0.007,0.001-0.016,0.001-0.023H77.235c-0.025,0.49-0.064,0.989-0.064,1.464C77.173,86.76,77.347,88.324,77.663,89.793z"></path> <path fill="#3A5F8E" d="M77.346,82.095h18.577c0.066-0.958,0.188-1.982,0.378-3.087c0.184-1.084,0.463-2.104,0.787-3.093H78.599 c-0.388,1.313-0.732,2.662-0.986,4.088C77.493,80.719,77.416,81.409,77.346,82.095z"></path> <path fill="#3A5F8E" d="M108.472,54.789c-6.354,0.006-11.93,1.426-16.751,4.212h32.266 C120.095,56.196,114.93,54.782,108.472,54.789z"></path> <path fill="#3A5F8E" d="M111.623,82.095h18.55c0.258-1.005,0.479-2.044,0.66-3.119c0.182-1.058,0.287-2.07,0.356-3.061h-18.545 c-0.031,0.969-0.126,1.985-0.323,3.078C112.122,80.103,111.888,81.134,111.623,82.095z"></path> <path fill="#3A5F8E" d="M97.636,74.397c0.549-1.296,1.222-2.509,2.04-3.625c0.822-1.123,1.778-1.969,2.859-2.555H82.038 c-1.195,1.889-2.205,3.936-2.982,6.18H97.636z"></path> <path fill="#3A5F8E" d="M111.111,69.427c0.899,1.259,1.387,2.932,1.509,4.97h18.639c0.001-0.104,0.015-0.214,0.015-0.316 c-0.002-2.113-0.27-4.063-0.779-5.863h-20.601C110.353,68.541,110.762,68.939,111.111,69.427z"></path> <polygon fill="#3A5F8E" points="180.331,74.397 183.496,68.217 166.473,68.217 163.697,74.397 "></polygon> <polygon fill="#3A5F8E" points="176.389,82.095 179.554,75.915 163.016,75.915 160.241,82.095 "></polygon> <polygon fill="#3A5F8E" points="157.54,74.397 156.899,68.217 139.223,68.217 140.29,74.397 "></polygon> <polygon fill="#3A5F8E" points="156.742,66.699 156.102,60.519 137.894,60.519 138.961,66.699 "></polygon> <polygon fill="#3A5F8E" points="145.183,102.726 165.831,102.708 167.726,99.009 144.541,99.009 "></polygon> <polygon fill="#3A5F8E" points="168.503,97.491 171.668,91.311 143.211,91.311 144.278,97.491 "></polygon> <polygon fill="#3A5F8E" points="158.339,82.095 157.698,75.915 140.553,75.915 141.62,82.095 "></polygon> <polygon fill="#3A5F8E" points="172.445,89.793 175.61,83.613 159.56,83.613 158.695,85.537 158.496,83.613 141.882,83.613 142.949,89.793 "></polygon> <polygon fill="#3A5F8E" points="184.273,66.699 187.439,60.519 169.929,60.519 167.154,66.699 "></polygon> <polygon fill="#3A5F8E" points="189.729,56.049 171.929,56.065 170.61,59.001 188.217,59.001 "></polygon> <polygon fill="#3A5F8E" points="155.642,56.081 137.13,56.097 137.631,59.001 155.944,59.001 "></polygon> <path fill="#3A5F8E" d="M192.455,66.699h19.713c1.301-0.583,2.751-0.883,4.358-0.884c1.364-0.001,2.61,0.22,3.738,0.664 c0.152,0.06,0.268,0.146,0.399,0.22h19.8c-0.009-1.927-0.319-3.608-0.936-5.043c-0.17-0.396-0.379-0.772-0.615-1.137h-41.982 C194.924,62.221,193.422,64.273,192.455,66.699z"></path> <path fill="#3A5F8E" d="M188.925,101.173c2.7,1.896,6.157,2.843,10.369,2.839c3.679-0.003,6.987-0.482,9.923-1.433 c2.334-0.756,4.656-1.951,6.97-3.57h-29.463C187.318,99.825,188.042,100.554,188.925,101.173z"></path> <path fill="#3A5F8E" d="M188.783,82.095h30.75c0.069-0.028,0.146-0.057,0.212-0.085c-0.003,0.029-0.008,0.056-0.011,0.085h18.522 l1.079-6.18h-39.152c-1.982,0.459-3.934,1.125-5.852,2.024C192.209,78.935,190.366,80.331,188.783,82.095z"></path> <path fill="#3A5F8E" d="M221.958,69.281c-0.06,0.12-0.089,0.238-0.089,0.356c-0.236,1.543-1.288,2.597-3.156,3.163 c-1.868,0.566-4.82,1.087-8.854,1.565c-0.083,0.011-0.158,0.021-0.241,0.032h29.982l0.072-0.415 c0.396-2.301,0.644-4.222,0.743-5.765h-18.558c0.062,0.246,0.1,0.508,0.1,0.797C221.958,69.074,221.958,69.163,221.958,69.281z"></path> <path fill="#3A5F8E" d="M209.232,70.36c0.253-0.849,0.604-1.557,1.04-2.143h-18.329c-0.204,0.696-0.382,1.411-0.511,2.16 L209.232,70.36z"></path> <path fill="#3A5F8E" d="M236.321,57.92c-1.515-1.036-3.651-1.835-6.41-2.397c-2.76-0.561-6.187-0.84-10.28-0.836 c-8.9,0.008-15.605,1.335-20.11,3.979c-0.18,0.105-0.338,0.226-0.512,0.335h38.625C237.237,58.622,236.812,58.256,236.321,57.92z"></path> <path fill="#3A5F8E" d="M217.983,102.66l19.135-0.018l0.177-0.89c-0.926-0.877-1.479-1.792-1.684-2.743h-17.632L217.983,102.66z"></path> <path fill="#3A5F8E" d="M185.824,97.491h49.745c0.056-0.447,0.151-1.004,0.297-1.701l0.782-4.479h-20.901 c-1.599,1.45-3.67,2.187-6.228,2.189c-1.602,0.001-2.879-0.294-3.827-0.887c-0.571-0.355-0.949-0.796-1.178-1.303h-19.568 c-0.05,0.495-0.08,0.967-0.079,1.411C184.868,94.528,185.192,96.115,185.824,97.491z"></path> <path fill="#3A5F8E" d="M204.354,89.793c0-0.056,0-0.112,0-0.204c0.294-1.78,1.109-3.012,2.443-3.696 c1.335-0.683,3.366-1.323,6.096-1.919c0.557-0.121,1.079-0.241,1.585-0.361h-26.881c-1.166,1.722-1.983,3.774-2.427,6.18H204.354z"></path> <path fill="#3A5F8E" d="M236.913,89.793l1.079-6.18h-18.476c-0.431,2.442-1.243,4.502-2.438,6.18H236.913z"></path> <polygon fill="#3A5F8E" points="270.449,55.976 251.938,55.993 251.412,59.001 269.921,59.001 "></polygon> <polygon fill="#3A5F8E" points="271.513,50.012 272.367,45.123 253.858,45.123 253.001,50.029 "></polygon> <polygon fill="#3A5F8E" points="267.232,74.397 268.312,68.217 249.803,68.217 248.724,74.397 "></polygon> <polygon fill="#3A5F8E" points="273.814,36.838 255.303,36.855 254.123,43.605 272.632,43.605 "></polygon> <polygon fill="#3A5F8E" points="265.889,82.095 266.968,75.915 248.458,75.915 247.379,82.095 "></polygon> <polygon fill="#3A5F8E" points="263.2,97.491 264.279,91.311 245.77,91.311 244.69,97.491 "></polygon> <polygon fill="#3A5F8E" points="268.577,66.699 269.656,60.519 251.147,60.519 250.067,66.699 "></polygon> <polygon fill="#3A5F8E" points="243.792,102.636 262.305,102.619 262.935,99.009 244.426,99.009 "></polygon> <polygon fill="#3A5F8E" points="264.544,89.793 265.623,83.613 247.114,83.613 246.035,89.793 "></polygon> <path fill="#3A5F8E" d="M274.342,82.095h18.813c0.862-2.674,2.032-4.724,3.522-6.118c0.023-0.022,0.051-0.04,0.074-0.062h-21.331 L274.342,82.095z"></path> <polygon fill="#3A5F8E" points="271.653,97.491 290.168,97.491 291.255,91.311 272.732,91.311 "></polygon> <path fill="#3A5F8E" d="M272.997,89.793h18.525l0.582-3.31c0.171-1.023,0.38-1.97,0.612-2.87h-18.641L272.997,89.793z"></path> <polygon fill="#3A5F8E" points="270.759,102.611 289.271,102.595 289.901,99.009 271.388,99.009 "></polygon> <path fill="#3A5F8E" d="M294.31,65.388l-0.178,0l0.822-4.869h-16.845l-1.079,6.18h33.778l1.094-6.18h-14.34 C296.39,61.893,295.305,63.514,294.31,65.388z"></path> <path fill="#3A5F8E" d="M275.686,74.397h23.233c1.912-1.019,4.228-1.541,6.968-1.543c0.534,0,1.394,0.118,2.582,0.354 c0.414,0.06,0.801,0.119,1.157,0.177l0.914-5.167h-33.774L275.686,74.397z"></path> <path fill="#3A5F8E" d="M312.901,54.869l-0.802-0.088c-0.712-0.118-1.246-0.177-1.602-0.177c-3.561,0.003-6.66,0.883-9.298,2.634 c-0.76,0.504-1.487,1.099-2.19,1.763h13.16L312.901,54.869z"></path> <polygon fill="#3A5F8E" points="295.725,55.953 278.904,55.968 278.375,59.001 295.21,59.001 "></polygon> </g> <g> <polygon fill="none" points="421.912,117.919 433.525,116.633 434.593,117.849 360.723,126.045 369.176,120.299 430.757,113.478 431.676,114.526 422.133,115.585 "></polygon> <polygon fill="none" points="423.492,105.204 424.559,106.418 382.776,111.055 391.227,105.311 420.72,102.044 423.153,104.817 423.112,105.246 "></polygon> <polygon fill="none" points="422.512,111.583 428.51,110.918 429.576,112.133 371.75,118.55 380.202,112.805 425.737,107.761 426.661,108.813 422.733,109.249 "></polygon> <polygon fill="none" points="415.7,96.328 419.541,100.703 393.805,103.559 402.252,97.817 "></polygon> <polygon fill="none" points="411.494,91.535 414.525,94.988 404.832,96.063 "></polygon> <g> <polygon fill="none" points="438.268,63.453 413.726,66.17 413.946,63.836 442.337,60.687 444.391,59.291 479.767,55.373 478.538,60.296 435.956,65.024 "></polygon> <polygon fill="none" points="429.694,70.672 413.124,72.507 413.346,70.173 431.313,68.179 433.363,66.785 478.157,61.824 476.93,66.747 429.568,72.004 "></polygon> <polygon fill="none" points="429.095,77.009 412.524,78.844 412.745,76.51 429.315,74.671 429.428,73.494 476.549,68.275 475.321,73.198 428.968,78.343 "></polygon> <polygon fill="none" points="449.288,55.962 414.324,59.834 414.546,57.5 453.36,53.193 455.415,51.797 481.375,48.921 480.147,53.845 446.983,57.527 "></polygon> <polygon fill="none" points="458.886,49.438 431.418,52.48 431.495,51.662 414.926,53.497 415.146,51.164 431.717,49.325 431.829,48.137 482.984,42.471 481.756,47.394 458.014,50.031 "></polygon> <polygon fill="none" points="428.494,83.345 411.923,85.181 412.145,82.846 428.716,81.008 428.826,79.834 474.939,74.726 473.711,79.649 428.367,84.682 "></polygon> <polygon fill="none" points="432.695,38.989 416.126,40.824 416.347,38.49 432.917,36.651 433.03,35.458 486.202,29.568 484.974,34.492 432.57,40.313 "></polygon> <polygon fill="none" points="432.096,45.326 415.525,47.161 415.747,44.827 432.317,42.988 432.43,41.797 484.594,36.02 483.366,40.943 431.971,46.651 "></polygon> <polygon fill="none" points="427.293,96.019 410.724,97.854 410.944,95.52 427.515,93.681 427.626,92.512 471.722,87.628 470.493,92.551 427.166,97.359 "></polygon> <polygon fill="none" points="425.493,115.029 420.537,115.577 421.604,116.793 347.733,124.989 356.187,119.243 417.768,112.422 418.687,113.471 425.714,112.691 425.823,111.53 466.895,106.981 465.666,111.905 425.364,116.376 "></polygon> <polygon fill="none" points="427.894,89.682 411.323,91.517 411.544,89.183 428.115,87.345 428.226,86.173 473.33,81.177 472.104,86.1 427.768,91.021 "></polygon> <polygon fill="none" points="398.505,90.479 401.535,93.932 391.843,95.008 "></polygon> <polygon fill="none" points="402.712,95.272 406.552,99.647 380.815,102.503 389.263,96.761 "></polygon> <polygon fill="none" points="426.093,108.691 415.521,109.863 416.586,111.077 358.761,117.494 367.213,111.75 412.748,106.706 413.671,107.757 426.314,106.354 426.425,105.191 468.503,100.53 467.275,105.453 425.966,110.037 "></polygon> <polygon fill="none" points="426.692,102.355 410.503,104.148 411.569,105.363 369.788,109.999 378.237,104.255 407.729,100.988 410.164,103.761 410.345,101.857 426.914,100.018 427.024,98.852 470.112,94.079 468.885,99.002 426.565,103.698 "></polygon> <path fill="#3A5F8E" d="M345.162,126.737l77.624-8.597l2.178,2.48l0.261-2.75l40.063-4.438l0.38-1.527l-40.302,4.472l0.129-1.348 l-4.956,0.548l1.066,1.216l-73.87,8.196l8.453-5.746l61.581-6.821l0.919,1.048l7.027-0.78l0.109-1.161l41.071-4.549l0.381-1.528 l-41.31,4.584l0.127-1.346l-10.572,1.171l1.065,1.214l-57.825,6.417l8.452-5.745l45.535-5.044l0.923,1.051l12.644-1.403 l0.11-1.163l42.078-4.661l0.382-1.528l-42.319,4.696l0.127-1.342l-16.189,1.793l1.066,1.214l-41.782,4.636l8.45-5.744 l29.492-3.267l2.435,2.773l0.181-1.904l16.569-1.839l0.11-1.166l43.088-4.772l0.381-1.528l-43.327,4.808l0.127-1.34l-16.569,1.835 l0.221-2.334l16.57-1.838l0.111-1.169l44.096-4.884l0.382-1.528l-44.336,4.921l0.126-1.339l-16.57,1.835l0.221-2.334l16.571-1.838 l0.11-1.172l45.104-4.996l0.381-1.528l-45.344,5.033l0.127-1.337l-16.571,1.835l0.222-2.334l16.571-1.838l0.11-1.174l46.113-5.108 l0.382-1.528l-46.354,5.145l0.127-1.334l-16.57,1.835l0.221-2.334l16.57-1.838l0.112-1.177l47.121-5.219l0.381-1.528 l-47.361,5.257l0.126-1.333l-16.57,1.835l0.222-2.334l17.968-1.994l2.05-1.394l44.794-4.961l0.381-1.527l-42.582,4.728 l2.312-1.571l-24.542,2.718l0.221-2.334l28.391-3.15l2.054-1.396l35.376-3.918l0.381-1.527l-33.164,3.682l2.305-1.565 l-34.964,3.872l0.222-2.334l38.814-4.307l2.055-1.396l25.96-2.875l0.381-1.527l-23.742,2.637l0.872-0.592l-27.468,3.042 l0.077-0.818l-16.569,1.835l0.221-2.333l16.57-1.839l0.112-1.188l51.155-5.666l0.382-1.527l-51.396,5.708l0.125-1.326 l-16.57,1.835l0.222-2.334l16.57-1.839l0.112-1.19l52.164-5.777l0.38-1.528l-52.403,5.821l0.125-1.324l-16.569,1.835l0.221-2.333 l16.57-1.839l0.113-1.193l53.172-5.889l0.382-1.527l-53.412,5.934l0.125-1.322l-13.766,1.524l-17.304,21.537L371.02,59.17 l14.845,16.909L345.162,126.737z M401.535,93.932l-9.692,1.076l6.662-4.528L401.535,93.932z M380.815,102.503l8.447-5.742 l13.449-1.489l3.84,4.375L380.815,102.503z"></path> <polygon fill="#3A5F8E" points="433.519,30.314 421.569,31.641 425.062,27.294 433.896,26.316 433.771,27.637 488.192,21.59 487.812,23.118 433.631,29.119 "></polygon> <polygon fill="#3A5F8E" points="434.719,17.642 432.632,17.873 434.96,14.976 434.96,14.963 434.97,14.962 434.973,14.959 434.972,14.962 491.41,8.688 491.029,10.215 434.832,16.44 "></polygon> <polygon fill="#3A5F8E" points="434.118,23.978 427.101,24.756 430.593,20.412 434.498,19.979 434.372,21.299 489.802,15.139 489.42,16.667 434.232,22.779 "></polygon> </g> </g> </svg> 